<svg width="956" height="236" viewBox="0 0 956 236" fill="none" xmlns="http://www.w3.org/2000/svg">
<rect x="1.5" y="49.5" width="137" height="137" rx="10.5" stroke="white" stroke-width="3"/>
<path d="M58.7452 79.4554C59.5599 79.4554 60.2204 78.9025 60.2204 78.2204C60.2204 77.5383 59.5599 76.9854 58.7452 76.9854C57.9305 76.9854 57.27 77.5383 57.27 78.2204C57.27 78.9025 57.9305 79.4554 58.7452 79.4554Z" fill="#EBEBEB"/>
<path d="M63.0433 85.3024C63.1834 85.515 63.0517 85.8595 62.8549 85.997C62.7616 86.0638 62.6467 86.0822 62.5321 86.0884C62.4075 86.0982 62.2899 86.0919 62.1697 86.055C62.1217 86.0411 62.0709 86.0234 62.0162 86.0064C61.9033 85.9708 61.7813 85.9458 61.6609 85.9449C61.4833 85.9432 61.3074 86.0088 61.1479 86.0592L60.8379 86.1608C60.5014 86.269 60.1603 86.3595 59.822 86.4697C59.8038 86.4756 59.767 86.4866 59.7484 86.4917C58.9907 86.688 58.1393 86.4612 57.4132 86.2159C57.2834 86.1766 57.2224 86.3609 57.3465 86.4103C58.0769 86.6639 58.8604 86.8773 59.6379 86.7486C59.7078 86.7361 59.779 86.7194 59.8477 86.6999C60.0941 86.6228 60.3416 86.5532 60.5923 86.4817C60.7771 86.4308 61.0333 86.3467 61.2197 86.2883C61.3931 86.2364 61.5518 86.1717 61.7282 86.1943C61.7527 86.1967 61.7767 86.2004 61.8006 86.2051C61.7277 86.3674 61.6404 86.5163 61.5236 86.6485C61.3274 86.8711 61.0696 87.0287 60.7885 87.1185C60.7062 87.1459 60.6107 87.1703 60.5256 87.1922C60.2638 87.259 59.9927 87.2846 59.7212 87.2815C59.408 87.2813 59.0928 87.2424 58.7861 87.1776C58.6302 87.1449 58.4815 87.0914 58.3274 87.0468C58.0624 86.9689 57.7967 86.8985 57.5277 86.8363C57.4219 86.8111 57.3234 86.7941 57.2264 86.7495C57.1914 86.7339 57.1396 86.7076 57.1035 86.6903C56.9027 86.5875 56.5656 86.4068 56.5749 86.1541C56.585 85.993 56.7223 85.8411 56.8556 85.7431C56.9645 85.6644 57.0874 85.5964 57.2213 85.5844C57.3208 85.5775 57.4471 85.5845 57.5547 85.5672C57.7348 85.5418 57.9112 85.4831 58.0698 85.3947C58.1712 85.3393 58.2653 85.2778 58.3599 85.2147C58.6365 85.0292 58.9087 84.8336 59.1623 84.6164C59.2493 84.5442 59.3588 84.4378 59.4578 84.3914C59.7936 84.2287 60.1843 84.3822 60.5201 84.5173C60.7635 84.6202 61.0124 84.7233 61.2397 84.86C61.4186 84.9695 61.5249 85.0365 61.7416 85.0616C61.9096 85.0859 62.0852 85.0665 62.2508 85.0595C62.3635 85.0557 62.4719 85.0673 62.5815 85.0929C62.7394 85.1353 62.952 85.1724 63.0433 85.3024Z" fill="#DF6F22"/>
<path d="M48.8838 88.5186C48.8525 88.5459 48.8223 88.5749 48.7939 88.6054C48.7525 88.588 48.7113 88.5697 48.6704 88.5508L48.8838 88.5186V88.5186Z" fill="#010101"/>
<path d="M63.1049 85.001C63.2872 85.1181 63.3741 85.3342 63.3587 85.5478C63.3379 85.8714 63.1318 86.1957 62.8189 86.296C62.7271 86.3257 62.6379 86.3354 62.546 86.3403C62.4579 86.3453 62.3678 86.3462 62.2785 86.3334C62.2435 86.329 62.2093 86.3222 62.1754 86.3139C61.9399 86.8714 61.5245 87.2641 60.9605 87.4571C61.3563 87.9883 61.6364 88.6003 61.7754 89.2427C61.9377 89.992 61.8758 90.6173 61.8244 90.9233C61.7084 91.6152 61.4219 92.2659 60.9731 92.8573C60.638 93.2988 60.3013 93.5928 60.077 93.7755C59.5364 94.216 58.7107 94.5934 57.6892 94.8667C57.3033 94.97 56.5003 95.1849 55.502 95.2662C55.2241 95.289 54.9464 95.3003 54.6696 95.3003C53.795 95.3003 52.9286 95.1873 52.0842 94.9627L52.0814 94.9619C50.5955 94.5666 48.9113 94.1185 47.7231 92.468C46.4454 90.6933 46.5788 88.6914 46.6955 87.9131C46.7236 87.7256 46.7832 87.4252 46.9078 87.0584C47.0919 86.5161 47.3514 86.0233 47.679 85.5937C47.9303 85.2642 48.2745 84.8128 48.7083 84.8723C49.0095 84.9136 49.1328 85.1603 49.2632 85.4216C49.3798 85.6549 49.5117 85.9193 49.7989 86.1623C50.2642 86.5563 50.8276 86.6273 51.1643 86.6697C51.7536 86.7439 52.2632 86.6393 52.6296 86.5134C52.3236 86.1174 52.1088 85.6459 52.0087 85.1239C51.9198 84.6892 51.9096 84.2431 51.9289 83.8016C51.9588 83.2526 52.0869 82.7112 52.2979 82.2049C52.2166 82.146 52.1186 82.0655 52.0204 81.9626C51.7618 81.6916 51.6006 81.3761 51.5411 81.0249C51.521 80.9064 51.4937 80.6662 51.5357 80.3889C51.5955 79.9934 51.7778 79.6674 52.0631 79.4461C52.3966 79.1875 52.8331 79.0922 53.2674 79.1817C53.3453 79.0584 53.4259 78.9369 53.5092 78.8174C54.2956 77.6835 55.3585 76.7252 56.6287 76.1876C57.1615 75.9471 57.7414 75.7795 58.3311 75.8262C58.6871 75.8528 59.0383 75.9497 59.3601 76.1064C59.4399 76.1455 59.52 76.1898 59.5961 76.2358C59.6394 76.2639 59.7052 76.3043 59.7462 76.3354C59.7659 76.35 59.8002 76.3726 59.8194 76.3881C59.841 76.4058 59.904 76.4545 59.9255 76.4724C59.9774 76.5181 60.0442 76.5756 60.0921 76.6254C60.6048 77.1253 60.8941 77.8317 60.927 78.5489C61.3381 78.5149 61.7537 78.5347 62.1587 78.6155C62.5661 78.703 63.0851 78.8344 63.2844 79.2517C63.4539 79.5984 63.3978 80.0293 63.2017 80.352C63.1173 80.4893 62.9837 80.5944 62.856 80.6831C62.4746 80.9409 62.0731 81.1556 61.6577 81.3467C62.3618 82.7386 62.1534 84.2008 62.0213 84.7956C62.04 84.7949 62.0586 84.794 62.0772 84.793C62.1883 84.7865 62.3088 84.7799 62.423 84.7918C62.5389 84.8016 62.6535 84.8306 62.7651 84.8617C62.8812 84.8946 62.9981 84.93 63.1049 85.001ZM62.8549 85.9965C63.0518 85.859 63.1834 85.5145 63.0434 85.3019C62.9521 85.172 62.7395 85.1349 62.5816 85.0925C62.4719 85.0668 62.3636 85.0553 62.2509 85.059C62.0853 85.066 61.9097 85.0855 61.7417 85.0612C61.525 85.0361 61.4186 84.9691 61.2398 84.8595C61.0125 84.7228 60.7636 84.6197 60.5202 84.5168C60.1844 84.3818 59.7936 84.2282 59.4579 84.391C59.3589 84.4373 59.2494 84.5437 59.1624 84.6159C58.9088 84.8332 58.6366 85.0287 58.36 85.2142C58.2654 85.2773 58.1713 85.3388 58.0699 85.3943C57.9113 85.4826 57.7349 85.5414 57.5548 85.5667C57.4472 85.5841 57.3208 85.5771 57.2214 85.584C57.0875 85.5959 56.9646 85.6639 56.8557 85.7426C56.7224 85.8407 56.5851 85.9925 56.575 86.1537C56.5657 86.4063 56.9027 86.5871 57.1036 86.6898C57.1397 86.7071 57.1915 86.7334 57.2265 86.7491C57.3235 86.7936 57.4219 86.8106 57.5278 86.8359C57.7968 86.898 58.0625 86.9685 58.3275 87.0463C58.4816 87.091 58.6303 87.1445 58.7862 87.1771C59.0929 87.242 59.4081 87.2808 59.7213 87.281C59.9928 87.2841 60.2639 87.2586 60.5257 87.1917C60.6108 87.1698 60.7063 87.1454 60.7886 87.1181C61.0696 87.0282 61.3275 86.8706 61.5237 86.648C61.6405 86.5159 61.7278 86.3669 61.8007 86.2046C61.7768 86.2 61.7527 86.1963 61.7283 86.1938C61.5519 86.1713 61.3932 86.236 61.2198 86.2879C61.0333 86.3462 60.7772 86.4303 60.5924 86.4812C60.3417 86.5528 60.0942 86.6223 59.8478 86.6995C59.7791 86.719 59.7079 86.7357 59.638 86.7481C58.8605 86.8769 58.077 86.6634 57.3466 86.4098C57.2225 86.3605 57.2834 86.1761 57.4133 86.2155C58.1394 86.4608 58.9908 86.6876 59.7485 86.4913C59.7671 86.4861 59.8038 86.4751 59.8221 86.4693C60.1604 86.3591 60.5014 86.2686 60.8379 86.1604L61.148 86.0588C61.3075 86.0083 61.4833 85.9427 61.661 85.9444C61.7814 85.9453 61.9034 85.9703 62.0162 86.0059C62.0709 86.023 62.1218 86.0407 62.1698 86.0546C62.29 86.0915 62.4076 86.0977 62.5321 86.0879C62.6468 86.0817 62.7617 86.0633 62.8549 85.9965ZM62.8845 80.1278C62.9973 79.9286 63.0395 79.672 62.9526 79.4559C62.9235 79.3857 62.8843 79.3292 62.8238 79.2795C62.7903 79.2509 62.7493 79.2251 62.7058 79.2009C62.5195 79.1004 62.296 79.0429 62.0843 78.9996C61.5823 78.8995 61.0619 78.9025 60.5579 78.9906C59.5772 79.1743 58.5822 79.3273 57.6438 79.6783C56.8514 79.9778 56.0959 80.3794 55.3928 80.8566C55.4186 80.8643 55.4447 80.8712 55.4709 80.8771C55.5406 80.8932 55.6124 80.9019 55.6838 80.9037C55.8691 80.9091 56.0491 80.8584 56.2208 80.7852C56.4142 80.7002 56.6147 80.6172 56.811 80.546C57.106 80.4368 57.398 80.3381 57.6847 80.213C58.32 79.927 58.9734 79.6615 59.6471 79.4781C60.1408 79.3468 60.64 79.2034 61.1549 79.1915C61.6742 79.1796 62.1922 79.2978 62.6655 79.5106C62.7789 79.5665 62.7106 79.738 62.5881 79.6925C62.1389 79.5033 61.6494 79.4028 61.1629 79.4257C60.8366 79.4408 60.5173 79.5134 60.2006 79.6002C60.1606 79.6113 60.1206 79.6224 60.0805 79.6338C60.0456 79.6119 60.0102 79.5904 59.9745 79.5695C59.913 79.5333 59.8343 79.5545 59.7987 79.6169C59.7984 79.6175 59.7981 79.6179 59.7979 79.6185C59.7875 79.6127 59.7773 79.6071 59.7671 79.6016L59.7977 79.6189C59.7802 79.6505 59.7771 79.6863 59.7865 79.7187C59.6051 79.7727 59.4247 79.8303 59.2483 79.8936C58.737 80.0737 58.2451 80.301 57.7544 80.5328C57.4848 80.6546 57.2033 80.7587 56.9307 80.8669C56.7759 80.9283 56.6245 80.9916 56.4766 81.0606C56.3258 81.1322 56.1535 81.2096 55.9663 81.2471C55.8498 81.2715 55.7281 81.2812 55.6084 81.2753C55.4415 81.2675 55.2752 81.2286 55.1206 81.1662C55.0635 81.143 55.0078 81.1167 54.9538 81.0877L54.801 81.1362L54.7409 81.1552C54.7344 81.1574 54.7266 81.159 54.7196 81.1608L54.6764 81.1716C54.006 81.3414 53.3667 81.6363 52.8 82.0372C52.8073 82.0236 52.8149 82.01 52.8224 81.9964L52.7647 82.0622C52.7765 82.0539 52.7881 82.0455 52.8 82.0372C52.493 82.6006 52.3 83.2306 52.2565 83.8739C52.1707 85.0071 52.3918 86.0684 53.2747 86.8378C53.5493 87.0736 53.8633 87.2589 54.201 87.3884C54.3257 87.4412 54.2606 87.6259 54.1304 87.5857C53.6595 87.4221 53.2452 87.1622 52.9074 86.8276C52.494 86.9902 51.863 87.152 51.1167 87.0582C50.7379 87.0104 50.104 86.9306 49.5515 86.4629C49.2033 86.1682 49.0389 85.8389 48.9188 85.5984C48.8013 85.363 48.7481 85.2728 48.6567 85.2602C48.4438 85.231 48.1673 85.5934 47.9844 85.8332C47.3068 86.7217 47.1186 87.6948 47.0771 87.9719C46.9676 88.7023 46.8418 90.5801 48.0348 92.2371C48.5281 92.9223 49.1604 93.4458 49.9678 93.8373C50.6872 94.1862 51.4458 94.3881 52.1794 94.5833L52.1821 94.584C53.2516 94.8686 54.3583 94.9668 55.4711 94.8761C56.4352 94.7975 57.1868 94.5963 57.5907 94.4882C58.5603 94.2287 59.3365 93.8768 59.8352 93.4703C60.044 93.3002 60.3573 93.0268 60.6673 92.6185C61.0772 92.0783 61.3385 91.4859 61.4439 90.8577C61.4905 90.5798 61.5466 90.0112 61.3984 89.3266C61.2271 88.5354 60.8574 87.9437 60.5557 87.5684C60.2249 87.6431 59.885 87.6581 59.5484 87.6423C59.2081 87.6227 58.8714 87.574 58.5424 87.483C58.2313 87.3849 57.923 87.2904 57.6071 87.2115C57.4346 87.1645 57.2531 87.1387 57.0879 87.0618C56.7487 86.8982 56.3117 86.6699 56.2511 86.2489C56.2057 85.8625 56.5155 85.5462 56.8238 85.3787C56.8787 85.3493 56.936 85.3234 56.9983 85.3025C57.0889 85.2709 57.1933 85.2579 57.288 85.2588L57.3694 85.2586C57.4693 85.2585 57.5585 85.2468 57.6547 85.2218C57.8002 85.1861 57.929 85.1181 58.0569 85.0384C58.1927 84.954 58.3276 84.8624 58.4593 84.7713C58.6796 84.6192 58.8935 84.4507 59.0971 84.2761C59.3458 84.056 59.6539 83.9872 59.9748 84.0406C60.0128 84.0468 60.0503 84.0542 60.0875 84.0626C59.9627 83.8487 59.8852 83.5505 59.8852 83.2207C59.8852 82.5699 60.1867 82.0423 60.5587 82.0423C60.9307 82.0423 61.2323 82.5699 61.2323 83.2207C61.2323 83.7241 61.0519 84.1538 60.798 84.3226C60.9457 84.3873 61.0908 84.4537 61.2343 84.5317C61.2841 84.5588 61.3335 84.5875 61.3815 84.6166C61.4692 84.6681 61.5492 84.7276 61.6406 84.7565C61.6794 84.7685 61.7194 84.7772 61.76 84.7834C61.7613 84.7777 61.7627 84.7719 61.7639 84.7661C61.8173 84.5326 61.9056 84.0537 61.8971 83.4711C61.8864 82.7304 61.7275 82.0531 61.4249 81.4582L61.2809 81.1992C61.2193 81.0976 61.1524 80.9977 61.082 80.9021C60.7546 80.4574 60.3386 80.085 59.8455 79.7952C59.8156 79.7777 59.7953 79.7498 59.7865 79.7187C59.8276 79.7064 59.8687 79.6943 59.9099 79.6823H59.91C59.9669 79.6658 60.0237 79.6496 60.0805 79.6338C60.5577 79.9314 60.9637 80.3051 61.2882 80.7459C61.3498 80.8296 61.4088 80.9163 61.4642 81.0046C61.6871 80.8982 61.8815 80.8011 62.0426 80.7187C62.2926 80.5908 62.4479 80.4959 62.6374 80.3605C62.747 80.2821 62.8316 80.2201 62.8845 80.1278ZM60.6282 82.8612C60.6282 82.6686 60.539 82.5123 60.4288 82.5123C60.3187 82.5123 60.2295 82.6686 60.2295 82.8612C60.2295 83.0539 60.3187 83.21 60.4288 83.21C60.539 83.21 60.6282 83.0539 60.6282 82.8612ZM60.493 78.6047C60.5104 78.6017 60.5277 78.5988 60.5451 78.5959C60.5301 77.7306 60.1014 76.9298 59.3506 76.4883C58.849 76.1895 58.248 76.075 57.673 76.1727C57.3549 76.2231 57.0421 76.3315 56.7429 76.4587C56.4372 76.5872 56.1404 76.7314 55.8565 76.9039C54.9069 77.4767 54.1178 78.301 53.4989 79.2256C53.3741 79.4117 53.2563 79.6027 53.1446 79.7975C53.1158 79.8475 53.0526 79.8645 53.0033 79.8353C52.9545 79.8065 52.9377 79.7433 52.9651 79.6935C52.9925 79.6437 53.0205 79.5941 53.0488 79.5447C52.773 79.5212 52.5064 79.5952 52.2977 79.757C52.0902 79.918 51.9623 80.1504 51.9173 80.4481C51.8823 80.6792 51.9086 80.8822 51.9216 80.9587C51.996 81.3985 52.2708 81.6883 52.4657 81.8434C52.4717 81.8317 52.4776 81.8202 52.4837 81.8086C52.498 81.7811 52.5175 81.7591 52.5415 81.7428C53.1715 81.2897 53.8874 80.9609 54.6382 80.7778C54.6482 80.7748 54.6852 80.7628 54.6963 80.7594L54.8605 80.7074L54.9631 80.6748L54.9776 80.6703C55.5635 80.2545 56.1867 79.8921 56.838 79.5921C57.0949 79.4735 57.358 79.365 57.6253 79.2693C57.4303 79.0169 57.3222 78.704 57.3222 78.3776C57.3222 77.5796 57.9624 76.9304 58.7492 76.9304C59.5361 76.9304 60.1762 77.5796 60.1762 78.3776C60.1762 78.4762 60.1666 78.5732 60.1474 78.6682C60.2627 78.6472 60.3778 78.6261 60.493 78.6047ZM59.8697 78.7191C59.9024 78.609 59.9188 78.4947 59.9188 78.3776C59.9188 77.7235 59.3942 77.1914 58.7492 77.1914C58.1043 77.1914 57.5796 77.7235 57.5796 78.3776C57.5796 78.6769 57.6904 78.9622 57.8877 79.1799C57.9926 79.1461 58.0982 79.1143 58.2042 79.0848C58.7534 78.9315 59.311 78.8222 59.8697 78.7191Z" fill="#010101"/>
<path d="M62.9524 79.4563C63.0393 79.6723 62.9971 79.9289 62.8843 80.1281C62.8314 80.2204 62.7468 80.2825 62.6372 80.3608C62.4476 80.4962 62.2924 80.5911 62.0424 80.719C61.8813 80.8014 61.6869 80.8986 61.464 81.0049C61.4086 80.9167 61.3496 80.8299 61.288 80.7462C60.9634 80.3054 60.5575 79.9317 60.0803 79.6341C60.1203 79.6227 60.1604 79.6116 60.2004 79.6005C60.517 79.5138 60.8363 79.4412 61.1627 79.4261C61.6492 79.4031 62.1387 79.5036 62.5879 79.6928C62.7104 79.7383 62.7787 79.5668 62.6653 79.511C62.1919 79.2981 61.6739 79.1799 61.1546 79.1918C60.6397 79.2038 60.1406 79.3471 59.6469 79.4784C58.9732 79.6618 58.3198 79.9273 57.6845 80.2133C57.3977 80.3384 57.1057 80.4371 56.8108 80.5463C56.6145 80.6175 56.414 80.7005 56.2206 80.7855C56.0488 80.8587 55.8689 80.9094 55.6836 80.904C55.6122 80.9022 55.5404 80.8935 55.4707 80.8774C55.4445 80.8715 55.4184 80.8646 55.3926 80.8569C56.0957 80.3798 56.8511 79.9781 57.6436 79.6787C58.582 79.3276 59.577 79.1747 60.5577 78.991C61.0617 78.9028 61.5821 78.8998 62.084 78.9999C62.2958 79.0432 62.5192 79.1008 62.7055 79.2012C62.7491 79.2254 62.7901 79.2512 62.8236 79.2798C62.884 79.3295 62.9233 79.386 62.9524 79.4563Z" fill="#EA4335"/>
<path d="M61.8972 83.4712C61.9056 84.0538 61.8174 84.5326 61.764 84.7662C61.7627 84.772 61.7613 84.7778 61.76 84.7835C61.7194 84.7773 61.6794 84.7685 61.6407 84.7566C61.5493 84.7277 61.4692 84.6682 61.3816 84.6167C61.3336 84.5875 61.2841 84.5589 61.2343 84.5318C61.0908 84.4538 60.9457 84.3873 60.7981 84.3226C61.052 84.1538 61.2324 83.7241 61.2324 83.2208C61.2324 82.5699 60.9308 82.0424 60.5588 82.0424C60.1867 82.0424 59.8852 82.5699 59.8852 83.2208C59.8852 83.5506 59.9627 83.8487 60.0875 84.0627C60.0504 84.0543 60.0129 84.0468 59.9748 84.0407C59.654 83.9873 59.3459 84.056 59.0972 84.2761C58.8935 84.4508 58.6796 84.6193 58.4593 84.7713C58.3276 84.8625 58.1928 84.954 58.0569 85.0385C57.9291 85.1182 57.8002 85.1862 57.6547 85.2219C57.5586 85.2469 57.4693 85.2585 57.3694 85.2586L57.2881 85.2588C57.1933 85.258 57.089 85.2709 56.9984 85.3025C56.9361 85.3235 56.8787 85.3493 56.8238 85.3788C56.5156 85.5463 56.2057 85.8625 56.2511 86.249C56.3117 86.67 56.7487 86.8983 57.088 87.0619C57.2532 87.1388 57.4347 87.1646 57.6071 87.2115C57.9231 87.2905 58.2314 87.3849 58.5425 87.4831C58.8714 87.574 59.2081 87.6228 59.5485 87.6424C59.885 87.6582 60.2249 87.6432 60.5557 87.5684C60.8575 87.9438 61.2271 88.5355 61.3985 89.3266C61.5466 90.0113 61.4906 90.5798 61.444 90.8578C61.3385 91.4859 61.0772 92.0784 60.6673 92.6186C60.3574 93.0269 60.0441 93.3002 59.8352 93.4703C59.3365 93.8768 58.5603 94.2288 57.5907 94.4883C57.1869 94.5963 56.4352 94.7976 55.4712 94.8761C54.3583 94.9668 53.2517 94.8687 52.1822 94.5841L52.1794 94.5834C51.4458 94.3882 50.6873 94.1863 49.9679 93.8374C49.1604 93.4458 48.5282 92.9224 48.0349 92.2372C46.8418 90.5801 46.9677 88.7023 47.0771 87.9719C47.1187 87.6948 47.3068 86.7217 47.9844 85.8333C48.1673 85.5934 48.4439 85.231 48.6567 85.2603C48.7482 85.2729 48.8013 85.363 48.9189 85.5985C49.0389 85.839 49.2033 86.1683 49.5515 86.463C50.1041 86.9307 50.738 87.0105 51.1168 87.0582C51.8631 87.1521 52.4941 86.9903 52.9075 86.8276C53.2452 87.1622 53.6596 87.4222 54.1305 87.5858C54.2607 87.626 54.3258 87.4413 54.201 87.3885C53.8634 87.259 53.5494 87.0737 53.2748 86.8379C52.3918 86.0684 52.1707 85.0072 52.2566 83.874C52.3 83.2307 52.493 82.6007 52.8 82.0372C53.3668 81.6363 54.006 81.3414 54.6764 81.1717L54.7197 81.1609C54.7267 81.159 54.7344 81.1574 54.7409 81.1553L54.801 81.1363L54.9539 81.0878C55.0078 81.1168 55.0635 81.1431 55.1206 81.1663C55.2752 81.2286 55.4416 81.2675 55.6085 81.2753C55.7282 81.2813 55.8498 81.2715 55.9664 81.2472C56.1535 81.2096 56.3259 81.1323 56.4767 81.0607C56.6246 80.9917 56.7759 80.9283 56.9307 80.867C57.2033 80.7588 57.4849 80.6547 57.7544 80.5328C58.2452 80.301 58.7371 80.0738 59.2484 79.8937C59.4248 79.8303 59.6052 79.7727 59.7865 79.7188C59.7953 79.7499 59.8157 79.7778 59.8455 79.7953C60.3386 80.0851 60.7546 80.4574 61.082 80.9021C61.1524 80.9978 61.2193 81.0977 61.2809 81.1993L61.4249 81.4582C61.7275 82.0532 61.8864 82.7304 61.8972 83.4712ZM57.5195 83.5078C57.5195 82.6582 57.0835 81.9695 56.5456 81.9695C56.0077 81.9695 55.5717 82.6582 55.5717 83.5078C55.5717 84.3574 56.0077 85.0462 56.5456 85.0462C57.0835 85.0462 57.5195 84.3575 57.5195 83.5078ZM55.6639 90.1294C55.6642 89.9882 55.4694 89.9816 55.4566 90.1173C55.4421 90.3304 55.4053 90.5454 55.354 90.7534C55.0335 92.0785 54.0662 93.0084 52.6844 93.0014C52.3143 93.0037 51.9411 92.9444 51.5756 92.8758C50.8551 92.7297 50.1646 92.3989 49.6195 91.8967C49.3111 91.6267 49.0412 91.2998 48.9061 90.908C48.8222 90.6683 48.7705 90.4133 48.7712 90.1596C48.7712 90.1433 48.7714 90.1271 48.7719 90.1109C48.9125 90.2246 49.0682 90.3181 49.233 90.3899C49.343 90.4381 49.4561 90.4769 49.571 90.507C49.6337 90.5232 49.6989 90.4871 49.7186 90.4237C49.739 90.358 49.7026 90.2878 49.6376 90.2676C49.5361 90.2352 49.4376 90.1953 49.3432 90.1479C49.1574 90.0546 48.9857 89.9302 48.8464 89.7742C48.6862 89.5946 48.5634 89.3627 48.5659 89.1164C48.5686 88.9197 48.663 88.7459 48.7939 88.6052C49.743 89.0058 50.8419 89.0218 51.7987 88.6383C51.9508 88.5705 51.8678 88.3489 51.7116 88.3971C51.3587 88.5192 50.9895 88.5876 50.6175 88.5991C50.5289 88.6021 50.4287 88.6012 50.3398 88.5975C49.8137 88.5734 49.2943 88.4331 48.8255 88.1924C48.7589 88.1632 48.6787 88.1753 48.6232 88.2295C48.4601 88.3874 48.3217 88.5891 48.2599 88.814C48.1689 89.1427 48.2553 89.4687 48.4335 89.7402C48.4245 89.7583 48.4182 89.7782 48.4151 89.7992C48.3975 89.9189 48.389 90.0411 48.391 90.1623C48.3981 90.5222 48.4851 90.8775 48.6329 91.2031C48.8059 91.5822 49.0835 91.8946 49.3941 92.1595C50.0341 92.7282 50.8457 93.0829 51.6848 93.2068C52.459 93.3399 53.2981 93.3494 54.0114 92.9685C55.0463 92.4413 55.6002 91.265 55.6639 90.1294Z" fill="#FBBC04"/>
<path d="M60.5452 78.5959C60.5278 78.5988 60.5104 78.6017 60.493 78.6048C60.3779 78.6261 60.2627 78.6472 60.1475 78.6683C60.1667 78.5733 60.1762 78.4763 60.1762 78.3777C60.1762 77.5797 59.5361 76.9305 58.7493 76.9305C57.9624 76.9305 57.3223 77.5797 57.3223 78.3777C57.3223 78.7041 57.4304 79.017 57.6253 79.2694C57.358 79.365 57.095 79.4736 56.8381 79.5922C56.1868 79.8921 55.5635 80.2545 54.9776 80.6703L54.9632 80.6749C54.9269 80.6756 54.8911 80.6868 54.8605 80.7074L54.6964 80.7594C54.6852 80.7629 54.6483 80.7749 54.6383 80.7779C53.8874 80.9609 53.1715 81.2898 52.5416 81.7429C52.5176 81.7592 52.498 81.7812 52.4838 81.8087C52.4777 81.8202 52.4717 81.8318 52.4657 81.8434C52.2708 81.6883 51.9961 81.3986 51.9216 80.9588C51.9087 80.8823 51.8824 80.6793 51.9173 80.4482C51.9623 80.1505 52.0903 79.918 52.2977 79.7571C52.5065 79.5952 52.773 79.5212 53.0488 79.5447C53.0205 79.5941 52.9926 79.6437 52.9651 79.6936C52.9377 79.7434 52.9545 79.8065 53.0033 79.8353C53.0526 79.8645 53.1158 79.8476 53.1446 79.7975C53.2564 79.6028 53.3741 79.4117 53.4989 79.2257C54.1179 78.301 54.9069 77.4768 55.8566 76.9039C56.1405 76.7315 56.4373 76.5873 56.743 76.4588C57.0421 76.3315 57.3549 76.2231 57.673 76.1728C58.248 76.075 58.849 76.1896 59.3507 76.4884C60.1014 76.9298 60.5302 77.7307 60.5452 78.5959Z" fill="#EA4335"/>
<path d="M59.9745 79.5694C60.0102 79.5904 60.0456 79.6118 60.0805 79.6337C60.0237 79.6495 59.9669 79.6658 59.91 79.6823H59.9099C59.8716 79.6596 59.8342 79.6384 59.7979 79.6184C59.7981 79.6179 59.7984 79.6174 59.7987 79.6168C59.8342 79.5545 59.913 79.5332 59.9745 79.5694Z" fill="#010101"/>
<path d="M59.9101 79.682L59.7979 79.6185C59.7979 79.6184 59.7979 79.6183 59.798 79.6182C59.8343 79.6381 59.8717 79.6594 59.9101 79.682Z" fill="#010101"/>
<path d="M59.7976 79.6191L59.9099 79.6826C59.8687 79.6945 59.8275 79.7067 59.7864 79.719C59.7771 79.6866 59.7802 79.6507 59.7976 79.6191Z" fill="#010101"/>
<path d="M59.7979 79.6184C59.7978 79.6185 59.7978 79.6187 59.7977 79.6188L59.7671 79.6016C59.7773 79.6071 59.7875 79.6127 59.7979 79.6184Z" fill="#010101"/>
<path d="M59.5296 78.0529C59.5352 78.1231 59.5269 78.1873 59.5047 78.2454C59.4824 78.3035 59.4487 78.3508 59.4034 78.3872C59.3582 78.4237 59.3037 78.4446 59.24 78.4499C59.1746 78.4552 59.1184 78.4451 59.071 78.4195L59.0561 78.2339C59.0557 78.2281 59.0509 78.2237 59.0452 78.2237H59.0444C59.0384 78.2243 59.0331 78.2197 59.0326 78.2137L59.0232 78.0965C59.0267 78.1383 59.0347 78.1744 59.0474 78.2052C59.0603 78.2364 59.079 78.26 59.1037 78.2758C59.1285 78.2917 59.1603 78.298 59.1991 78.2948C59.2367 78.2917 59.2668 78.2797 59.2892 78.2586C59.3116 78.2375 59.3273 78.2104 59.3362 78.1771C59.3452 78.144 59.348 78.1076 59.3449 78.0681C59.3418 78.0291 59.333 77.994 59.3184 77.9627C59.3038 77.9313 59.2832 77.9071 59.2567 77.8899C59.2302 77.8726 59.1974 77.8656 59.1585 77.8688C59.1222 77.8718 59.0935 77.8832 59.0725 77.9027C59.0515 77.9224 59.0372 77.9486 59.0295 77.9816C59.0219 78.014 59.0197 78.051 59.023 78.0928L58.998 77.7821C59.0017 77.7786 59.0055 77.7751 59.0094 77.7718C59.0517 77.7356 59.1058 77.7147 59.1716 77.7093C59.2378 77.7039 59.2969 77.7152 59.3485 77.7432C59.4003 77.7712 59.4419 77.8119 59.4735 77.8654C59.5051 77.9189 59.5238 77.9814 59.5296 78.0529Z" fill="#010101"/>
<path d="M59.0971 78.7447C59.0975 78.7508 59.093 78.7562 59.087 78.7566L58.9332 78.7694C58.9271 78.7699 58.9219 78.7653 58.9214 78.7592L58.8418 77.767C58.8414 77.7609 58.8459 77.7556 58.8518 77.7551L58.9839 77.7442C58.99 77.7436 58.9952 77.7482 58.9958 77.7543L58.998 77.7818C58.9616 77.8165 58.9349 77.86 58.9181 77.9125C58.8995 77.9704 58.893 78.0344 58.8986 78.1046C58.9042 78.1748 58.921 78.237 58.9487 78.291C58.9765 78.3449 59.0148 78.3863 59.0635 78.415C59.066 78.4165 59.0685 78.4179 59.071 78.4192L59.0971 78.7447Z" fill="#010101"/>
<path d="M59.0559 78.234L59.0708 78.4196C59.0683 78.4183 59.0658 78.4169 59.0633 78.4154C59.0146 78.3867 58.9763 78.3453 58.9485 78.2913C58.9208 78.2374 58.904 78.1752 58.8984 78.105C58.8928 78.0348 58.8993 77.9708 58.9179 77.9129C58.9347 77.8604 58.9614 77.8169 58.9978 77.7822L59.0227 78.0929C59.0227 78.0935 59.0227 78.0941 59.0228 78.0948C59.0229 78.0954 59.0229 78.0961 59.023 78.0966L59.0324 78.2138C59.0328 78.2198 59.0381 78.2244 59.0441 78.2239H59.0449C59.0506 78.2239 59.0554 78.2282 59.0559 78.234Z" fill="#010101"/>
<path d="M58.718 78.4621C58.7184 78.4681 58.714 78.4735 58.708 78.474L58.5759 78.4849C58.5699 78.4854 58.5646 78.4809 58.5641 78.4748L58.5617 78.4454C58.5981 78.4111 58.6247 78.368 58.6415 78.3166C58.6603 78.2587 58.6669 78.1947 58.6613 78.1245C58.6557 78.0542 58.639 77.9921 58.6115 77.9382C58.5839 77.8841 58.5464 77.8427 58.4989 77.8139C58.4952 77.8117 58.4913 77.8095 58.4876 77.8076L58.4581 77.4642C58.4575 77.4581 58.462 77.4527 58.4681 77.4522L58.6219 77.4395C58.6279 77.439 58.6331 77.4436 58.6337 77.4496L58.718 78.4621Z" fill="#010101"/>
<path d="M58.6615 78.1245C58.6671 78.1947 58.6605 78.2587 58.6417 78.3166C58.6249 78.3681 58.5984 78.4111 58.562 78.4454L58.5372 78.1367L58.537 78.1329L58.5276 78.0158C58.5271 78.0097 58.5218 78.0051 58.5158 78.0056H58.5157C58.5098 78.0062 58.5044 78.0016 58.504 77.9955L58.4878 77.8076C58.4916 77.8096 58.4954 77.8117 58.4991 77.814C58.5466 77.8428 58.5841 77.8841 58.6117 77.9382C58.6393 77.9922 58.6559 78.0542 58.6615 78.1245Z" fill="#010101"/>
<path d="M58.5371 78.1365L58.5619 78.4452C58.5575 78.4496 58.5529 78.4537 58.5481 78.4576C58.5045 78.4939 58.4484 78.515 58.3795 78.5206C58.3158 78.5259 58.2587 78.5142 58.2083 78.4856C58.1577 78.4571 58.1169 78.4159 58.0858 78.3622C58.0545 78.3085 58.0361 78.2465 58.0305 78.1763C58.0248 78.1047 58.0333 78.0401 58.0559 77.9821C58.0786 77.9242 58.1133 77.8771 58.1598 77.8411C58.2064 77.8049 58.2628 77.7841 58.3291 77.7786C58.3897 77.7737 58.4427 77.7832 58.4877 77.8074L58.5039 77.9953C58.5043 78.0014 58.5097 78.0059 58.5156 78.0054H58.5157C58.5217 78.0049 58.527 78.0095 58.5275 78.0155L58.5369 78.1327C58.5334 78.091 58.5253 78.0548 58.5127 78.024C58.4998 77.9928 58.4814 77.9692 58.4576 77.9533C58.4337 77.9373 58.4037 77.9309 58.3673 77.9339C58.3284 77.9371 58.2973 77.9494 58.2738 77.9707C58.2504 77.9921 58.2339 78.0194 58.2246 78.0526C58.2152 78.0859 58.2121 78.1221 58.2152 78.161C58.2183 78.2006 58.2269 78.2359 58.2411 78.2673C58.2553 78.2986 58.275 78.3229 58.3005 78.3399C58.3259 78.3571 58.3575 78.3641 58.3951 78.3609C58.434 78.3577 58.4644 78.3463 58.4862 78.3266C58.5081 78.3069 58.5229 78.2805 58.5306 78.2476C58.5382 78.2152 58.5404 78.1783 58.5371 78.1365Z" fill="#010101"/>
<path d="M56.5457 81.9697C57.0835 81.9697 57.5196 82.6584 57.5196 83.508C57.5196 84.3576 57.0835 85.0465 56.5457 85.0465C56.0078 85.0465 55.5718 84.3577 55.5718 83.508C55.5718 82.6584 56.0078 81.9697 56.5457 81.9697ZM56.6142 83.0128C56.6142 82.782 56.5073 82.5948 56.3753 82.5948C56.2434 82.5948 56.1364 82.782 56.1364 83.0128C56.1364 83.2437 56.2434 83.4309 56.3753 83.4309C56.5073 83.4309 56.6142 83.2437 56.6142 83.0128Z" fill="#010101"/>
<path d="M55.4564 90.1171C55.4693 89.9814 55.6641 89.988 55.6638 90.1292C55.6001 91.2648 55.0461 92.4411 54.0113 92.9683C53.298 93.3492 52.4589 93.3397 51.6847 93.2066C50.8456 93.0827 50.034 92.728 49.394 92.1593C49.0834 91.8944 48.8058 91.582 48.6328 91.2029C48.485 90.8773 48.398 90.522 48.3909 90.1621C48.3889 90.0409 48.3974 89.9187 48.415 89.799C48.4181 89.778 48.4244 89.7581 48.4334 89.74C48.2552 89.4685 48.1688 89.1425 48.2597 88.8138C48.3216 88.5889 48.46 88.3872 48.6231 88.2293C48.6786 88.1751 48.7588 88.163 48.8254 88.1922C49.2942 88.4329 49.8136 88.5732 50.3397 88.5973C50.4286 88.601 50.5288 88.6019 50.6174 88.5989C50.9893 88.5874 51.3586 88.519 51.7115 88.3969C51.8677 88.3487 51.9506 88.5703 51.7985 88.6381C50.8418 89.0216 49.7429 89.0056 48.7938 88.605C48.8222 88.5744 48.8523 88.5454 48.8836 88.5181L48.6702 88.5504C48.7111 88.5693 48.7523 88.5876 48.7938 88.605C48.6629 88.7457 48.5685 88.9195 48.5658 89.1162C48.5633 89.3625 48.6861 89.5944 48.8463 89.774C48.9856 89.93 49.1573 90.0544 49.3431 90.1477C49.4375 90.1951 49.536 90.235 49.6375 90.2674C49.7025 90.2876 49.7389 90.3578 49.7185 90.4235C49.6988 90.4869 49.6336 90.523 49.5709 90.5068C49.456 90.4767 49.3428 90.4379 49.2329 90.3897C49.0681 90.3179 48.9124 90.2244 48.7718 90.1107C48.7713 90.1269 48.7711 90.1431 48.7711 90.1594C48.7704 90.4131 48.8221 90.6681 48.906 90.9078C49.0411 91.2996 49.3109 91.6265 49.6194 91.8965C50.1644 92.3987 50.855 92.7295 51.5755 92.8756C51.941 92.9442 52.3142 93.0035 52.6843 93.0012C54.0661 93.0082 55.0334 92.0783 55.3539 90.7532C55.4052 90.5452 55.442 90.3302 55.4564 90.1171Z" fill="#010101"/>
<path d="M54.963 80.6748L54.8604 80.7073C54.891 80.6867 54.9267 80.6756 54.963 80.6748Z" fill="#010101"/>
<path d="M52.7646 82.0619L52.8224 81.9961C52.8148 82.0096 52.8073 82.0232 52.7999 82.0368C52.7881 82.0451 52.7764 82.0535 52.7646 82.0619Z" fill="#010101"/>
<path d="M56.3832 83.4449C56.5177 83.4449 56.6268 83.255 56.6268 83.0208C56.6268 82.7866 56.5177 82.5967 56.3832 82.5967C56.2487 82.5967 56.1396 82.7866 56.1396 83.0208C56.1396 83.255 56.2487 83.4449 56.3832 83.4449Z" fill="#EBEBEB"/>
<path d="M60.4322 83.2118C60.5439 83.2118 60.6344 83.0553 60.6344 82.8622C60.6344 82.6692 60.5439 82.5127 60.4322 82.5127C60.3205 82.5127 60.23 82.6692 60.23 82.8622C60.23 83.0553 60.3205 83.2118 60.4322 83.2118Z" fill="#EBEBEB"/>
<rect x="34.5" y="172.5" width="19" height="109" rx="2.5" transform="rotate(180 34.5 172.5)" fill="#4285F4" stroke="#4285F4" stroke-width="3"/>
<rect x="-1.5" y="1.5" width="19" height="51" rx="2.5" transform="matrix(-1 0 0 1 93 120)" fill="#FBBC04" stroke="#FBBC04" stroke-width="3"/>
<rect x="-1.5" y="1.5" width="19" height="35" rx="2.5" transform="matrix(-1 0 0 1 123 136)" fill="#EA4335" stroke="#EA4335" stroke-width="3"/>
<rect x="45.5" y="97.5" width="19" height="75" rx="2.5" fill="#34A853" stroke="#34A853" stroke-width="3"/>
<rect width="7" height="26" rx="2" transform="matrix(0 -1 -1 0 68 102)" fill="#34A853"/>
<rect x="-0.5" y="-0.5" width="6" height="25" rx="1.5" transform="matrix(0 -1 -1 0 67 101)" stroke="black" stroke-opacity="0.1"/>
<path d="M182.839 177V154.92H210.839C217.666 154.92 223.639 153.587 228.759 150.92C233.879 148.147 237.826 144.147 240.599 138.92C243.372 133.693 244.759 127.507 244.759 120.36C244.759 113.213 243.319 107.08 240.439 101.96C237.666 96.84 233.719 92.8933 228.599 90.12C223.586 87.3467 217.666 85.96 210.839 85.96H182.039V64.04H211.159C219.692 64.04 227.532 65.4267 234.679 68.2C241.932 70.8667 248.226 74.76 253.559 79.88C258.999 84.8933 263.159 90.8667 266.039 97.8C269.026 104.627 270.519 112.2 270.519 120.52C270.519 128.733 269.026 136.307 266.039 143.24C263.159 150.173 259.052 156.147 253.719 161.16C248.386 166.173 242.092 170.067 234.839 172.84C227.692 175.613 219.906 177 211.479 177H182.839ZM165.879 177V64.04H190.999V177H165.879ZM318.824 178.76C311.677 178.76 305.331 177.32 299.784 174.44C294.344 171.453 290.077 167.4 286.984 162.28C283.891 157.053 282.344 151.08 282.344 144.36V99.24H306.824V144.04C306.824 146.707 307.251 149 308.104 150.92C309.064 152.84 310.451 154.333 312.264 155.4C314.077 156.467 316.264 157 318.824 157C322.451 157 325.331 155.88 327.464 153.64C329.597 151.293 330.664 148.093 330.664 144.04V99.24H355.144V144.2C355.144 151.027 353.597 157.053 350.504 162.28C347.411 167.4 343.144 171.453 337.704 174.44C332.264 177.32 325.971 178.76 318.824 178.76ZM408.114 178.76C400.114 178.76 392.861 177 386.354 173.48C379.847 169.96 374.727 165.107 370.994 158.92C367.261 152.733 365.394 145.8 365.394 138.12C365.394 130.333 367.261 123.4 370.994 117.32C374.834 111.133 380.007 106.28 386.514 102.76C393.021 99.24 400.327 97.48 408.434 97.48C414.514 97.48 420.061 98.5467 425.074 100.68C430.194 102.707 434.727 105.8 438.674 109.96L422.994 125.64C421.181 123.613 419.047 122.12 416.594 121.16C414.247 120.2 411.527 119.72 408.434 119.72C404.914 119.72 401.767 120.52 398.994 122.12C396.327 123.613 394.194 125.747 392.594 128.52C391.101 131.187 390.354 134.333 390.354 137.96C390.354 141.587 391.101 144.787 392.594 147.56C394.194 150.333 396.381 152.52 399.154 154.12C401.927 155.72 405.021 156.52 408.434 156.52C411.634 156.52 414.461 155.987 416.914 154.92C419.474 153.747 421.661 152.147 423.474 150.12L438.994 165.8C434.941 170.067 430.354 173.32 425.234 175.56C420.114 177.693 414.407 178.76 408.114 178.76ZM499.649 177L472.449 136.68L499.489 99.24H526.849L494.209 141.32L495.009 131.24L528.449 177H499.649ZM449.889 177V60.84H474.369V177H449.889ZM589.142 135.88V116.36H613.462C616.555 116.36 619.382 115.72 621.942 114.44C624.502 113.16 626.528 111.293 628.022 108.84C629.515 106.387 630.262 103.4 630.262 99.88C630.262 96.4667 629.515 93.5333 628.022 91.08C626.528 88.6267 624.502 86.76 621.942 85.48C619.382 84.2 616.555 83.56 613.462 83.56H589.142V64.04H617.142C624.288 64.04 630.742 65.48 636.502 68.36C642.262 71.24 646.795 75.4 650.102 80.84C653.515 86.1733 655.222 92.52 655.222 99.88C655.222 107.24 653.515 113.64 650.102 119.08C646.795 124.413 642.262 128.573 636.502 131.56C630.742 134.44 624.288 135.88 617.142 135.88H589.142ZM569.942 177V64.04H595.062V177H569.942ZM668.17 177V99.24H692.65V177H668.17ZM680.49 88.52C676.65 88.52 673.45 87.24 670.89 84.68C668.437 82.0133 667.21 78.8133 667.21 75.08C667.21 71.24 668.437 68.04 670.89 65.48C673.45 62.92 676.65 61.64 680.49 61.64C684.33 61.64 687.477 62.92 689.93 65.48C692.384 68.04 693.61 71.24 693.61 75.08C693.61 78.8133 692.384 82.0133 689.93 84.68C687.477 87.24 684.33 88.52 680.49 88.52ZM754.689 178.6C749.462 178.6 744.662 177.587 740.289 175.56C735.916 173.533 732.342 170.76 729.569 167.24C726.796 163.613 725.196 159.507 724.769 154.92V122.12C725.196 117.533 726.796 113.373 729.569 109.64C732.342 105.907 735.916 102.973 740.289 100.84C744.662 98.7067 749.462 97.64 754.689 97.64C762.049 97.64 768.556 99.4 774.209 102.92C779.969 106.44 784.449 111.24 787.649 117.32C790.956 123.4 792.609 130.333 792.609 138.12C792.609 145.907 790.956 152.84 787.649 158.92C784.449 165 779.969 169.8 774.209 173.32C768.556 176.84 762.049 178.6 754.689 178.6ZM709.889 209.8V99.24H734.369V119.24L730.369 138.12L734.049 157V209.8H709.889ZM750.209 156.52C753.729 156.52 756.769 155.72 759.329 154.12C761.996 152.52 764.076 150.333 765.569 147.56C767.062 144.787 767.809 141.64 767.809 138.12C767.809 134.493 767.062 131.293 765.569 128.52C764.076 125.747 761.996 123.613 759.329 122.12C756.769 120.52 753.782 119.72 750.369 119.72C746.956 119.72 743.916 120.52 741.249 122.12C738.689 123.613 736.662 125.747 735.169 128.52C733.676 131.293 732.929 134.493 732.929 138.12C732.929 141.64 733.622 144.787 735.009 147.56C736.502 150.333 738.582 152.52 741.249 154.12C743.916 155.72 746.902 156.52 750.209 156.52ZM843.445 178.76C835.019 178.76 827.499 177.053 820.885 173.64C814.379 170.12 809.259 165.267 805.525 159.08C801.792 152.893 799.925 145.907 799.925 138.12C799.925 130.333 801.739 123.4 805.365 117.32C809.099 111.133 814.112 106.28 820.405 102.76C826.699 99.24 833.792 97.48 841.685 97.48C849.365 97.48 856.139 99.1333 862.005 102.44C867.872 105.747 872.459 110.333 875.765 116.2C879.179 122.067 880.885 128.787 880.885 136.36C880.885 137.747 880.779 139.24 880.565 140.84C880.459 142.333 880.192 144.093 879.765 146.12L812.725 146.28V129.48L869.365 129.32L858.805 136.36C858.699 131.88 858.005 128.2 856.725 125.32C855.445 122.333 853.525 120.093 850.965 118.6C848.512 117 845.472 116.2 841.845 116.2C838.005 116.2 834.645 117.107 831.765 118.92C828.992 120.627 826.805 123.08 825.205 126.28C823.712 129.48 822.965 133.373 822.965 137.96C822.965 142.547 823.765 146.493 825.365 149.8C827.072 153 829.419 155.507 832.405 157.32C835.499 159.027 839.125 159.88 843.285 159.88C847.125 159.88 850.592 159.24 853.685 157.96C856.779 156.573 859.499 154.547 861.845 151.88L875.285 165.32C871.445 169.8 866.805 173.16 861.365 175.4C855.925 177.64 849.952 178.76 843.445 178.76ZM892.702 177V99.24H917.182V177H892.702ZM917.182 134.28L906.942 126.28C908.968 117.213 912.382 110.173 917.182 105.16C921.982 100.147 928.648 97.64 937.182 97.64C940.915 97.64 944.168 98.2267 946.942 99.4C949.822 100.467 952.328 102.173 954.462 104.52L939.902 122.92C938.835 121.747 937.502 120.84 935.902 120.2C934.302 119.56 932.488 119.24 930.462 119.24C926.408 119.24 923.155 120.52 920.702 123.08C918.355 125.533 917.182 129.267 917.182 134.28Z" fill="white"/>
</svg>
