<svg width="140" height="140" viewBox="0 0 140 140" fill="none" xmlns="http://www.w3.org/2000/svg">
<path d="M52.8027 46.6445C52.7518 46.7346 52.701 46.8254 52.6513 46.9161C52.5713 46.9714 52.4925 47.0273 52.4131 47.0832L52.8027 46.6445Z" fill="#010101"/>
<path d="M67.2526 37.834L66.5596 38.0509C66.7662 37.9135 67.0075 37.839 67.2526 37.834Z" fill="#010101"/>
<path d="M101.08 30.4652C100.665 30.2241 100.133 30.3658 99.8928 30.7815C99.8909 30.7852 99.8891 30.7883 99.8872 30.7921C99.7681 31.0033 99.747 31.2438 99.8103 31.4601C100.088 31.378 100.365 31.2972 100.643 31.2177H100.644C101.028 31.1077 101.412 30.9996 101.795 30.894C101.559 30.7479 101.32 30.605 101.08 30.4652Z" fill="#010101"/>
<path d="M90.3128 23.474C89.8828 23.5091 89.4975 23.4313 89.1568 23.241C88.8161 23.0505 88.5404 22.7763 88.3298 22.4181C88.1192 22.0601 87.995 21.647 87.957 21.1788C87.9183 20.702 87.9755 20.2705 88.1286 19.8842C88.2816 19.498 88.5154 19.1845 88.8298 18.9436C89.1442 18.7027 89.5251 18.5641 89.9723 18.5277C90.4165 18.4915 90.799 18.5695 91.1195 18.7616C91.44 18.9536 91.6934 19.2297 91.8794 19.5898C92.0654 19.9499 92.1775 20.364 92.2155 20.8321C92.2535 21.3002 92.2089 21.7271 92.0819 22.1127C91.955 22.4983 91.7445 22.8121 91.4505 23.0542C91.1565 23.2963 90.7772 23.4363 90.3128 23.474ZM90.418 22.4096C90.6805 22.3882 90.8856 22.312 91.0333 22.1806C91.1808 22.0493 91.2807 21.874 91.3325 21.6545C91.3844 21.4351 91.3989 21.1837 91.3759 20.9005C91.3529 20.6172 91.2981 20.3716 91.2115 20.1634C91.1249 19.9552 91.0011 19.7981 90.84 19.6919C90.6789 19.5857 90.4757 19.5426 90.2305 19.5626C89.968 19.584 89.7576 19.6659 89.5992 19.8082C89.4409 19.9505 89.3299 20.1326 89.2667 20.3545C89.2034 20.5764 89.1823 20.8173 89.2034 21.0773C89.2248 21.3404 89.2831 21.5763 89.3784 21.7852C89.4739 21.9942 89.6074 22.1556 89.7794 22.2696C89.9512 22.3836 90.1641 22.4303 90.418 22.4096ZM91.5599 23.1675L91.3115 20.1072C91.3082 20.0665 91.2726 20.0362 91.232 20.0395L91.2315 20.0396C91.1911 20.0429 91.1555 20.0128 91.152 19.9724L90.8437 16.4305C90.8402 16.3897 90.8705 16.3537 90.9113 16.3504L91.9498 16.2659C91.9903 16.2626 92.0258 16.2928 92.0292 16.3334L92.5983 23.0827C92.6017 23.1235 92.5714 23.1593 92.5307 23.1626L91.6394 23.2352C91.5988 23.2385 91.5632 23.2082 91.5599 23.1675Z" fill="#010101"/>
<path d="M93.9706 25.0654L93.4338 18.4508C93.4305 18.4101 93.4608 18.3745 93.5014 18.3711L94.3929 18.2985C94.4336 18.2952 94.4692 18.3256 94.4725 18.3662L94.7208 21.4265C94.7241 21.4672 94.7597 21.4975 94.8003 21.4942C94.8409 21.4909 94.8765 21.5211 94.8798 21.5618L95.1563 24.9689C95.1596 25.0096 95.1294 25.0452 95.0888 25.0485L94.0501 25.1331C94.0095 25.1364 93.9739 25.1061 93.9706 25.0654ZM96.1206 23.001C95.6561 23.0389 95.2593 22.9621 94.9301 22.7708C94.6009 22.5794 94.3425 22.3037 94.1551 21.9437C93.9675 21.5838 93.8549 21.1697 93.8169 20.7016C93.7789 20.2335 93.8226 19.8066 93.9482 19.4212C94.0737 19.0357 94.2791 18.7223 94.5645 18.4809C94.8499 18.2396 95.2147 18.1007 95.659 18.0646C96.1062 18.0282 96.5044 18.1034 96.8535 18.2903C97.2026 18.4771 97.4838 18.7487 97.6972 19.1051C97.9106 19.4615 98.0366 19.8781 98.0753 20.3549C98.1133 20.8231 98.0572 21.2508 97.9072 21.6383C97.7571 22.0258 97.5293 22.341 97.2237 22.584C96.9182 22.8271 96.5505 22.9661 96.1206 23.0011V23.001ZM95.845 21.9676C96.0989 21.9469 96.3015 21.8665 96.4527 21.7262C96.604 21.5859 96.7098 21.4049 96.7703 21.1833C96.8307 20.9617 96.8502 20.7194 96.8289 20.4564C96.8078 20.1963 96.7481 19.9619 96.6498 19.7532C96.5516 19.5445 96.4128 19.3827 96.2337 19.2679C96.0545 19.1531 95.8335 19.1063 95.571 19.1276C95.3258 19.1476 95.1322 19.223 94.9904 19.3538C94.8486 19.4846 94.7517 19.6597 94.6997 19.8792C94.6479 20.0988 94.6335 20.3501 94.6565 20.6332C94.6794 20.9164 94.7342 21.1622 94.8208 21.3703C94.9074 21.5786 95.0341 21.7355 95.201 21.8412C95.3678 21.9468 95.5825 21.989 95.845 21.9676Z" fill="#010101"/>
<path d="M101.795 30.894C101.412 30.9996 101.028 31.1077 100.644 31.2177H100.643C100.365 31.2972 100.088 31.378 99.8103 31.4601C99.747 31.2438 99.7681 31.0033 99.8872 30.7921C99.8891 30.7883 99.891 30.7852 99.8928 30.7815C100.133 30.3658 100.665 30.2241 101.08 30.4652C101.32 30.605 101.559 30.7479 101.795 30.894Z" fill="#010101"/>
<path d="M77.9342 46.4648C74.3036 46.4648 71.3604 51.0563 71.3604 56.7203C71.3604 62.3844 74.3036 66.9764 77.9342 66.9764C81.5648 66.9764 84.508 62.3849 84.508 56.7203C84.508 51.0558 81.5648 46.4648 77.9342 46.4648ZM76.7839 56.2058C75.8937 56.2058 75.1716 54.9581 75.1716 53.4189C75.1716 51.8797 75.8937 50.6319 76.7839 50.6319C77.6749 50.6319 78.397 51.8797 78.397 53.4189C78.397 54.9581 77.6749 56.2058 76.7839 56.2058Z" fill="#010101"/>
<path d="M71.9827 100.864C71.5527 108.435 67.8136 116.277 60.8284 119.791C56.0135 122.33 50.3498 122.267 45.1235 121.38C39.4598 120.554 33.9817 118.189 29.6618 114.398C27.5648 112.632 25.6912 110.549 24.5236 108.022C23.526 105.851 22.9385 103.483 22.8907 101.083C22.877 100.275 22.9347 99.4606 23.0532 98.6627C23.0743 98.5223 23.1165 98.3899 23.1773 98.2694C21.9744 96.4593 21.3912 94.2862 22.0054 92.0946C22.4229 90.5952 23.3572 89.2505 24.4578 88.1978C24.8326 87.8368 25.3742 87.756 25.8233 87.9505C28.988 89.5549 32.4939 90.4908 36.0451 90.6511C36.6451 90.6759 37.3213 90.6822 37.9194 90.6616C40.4301 90.5852 42.9223 90.1291 45.3047 89.3151C46.3587 88.9938 46.919 90.4715 45.8922 90.9232C39.4344 93.4797 32.0168 93.3734 25.6099 90.7027C25.8016 90.4988 26.0051 90.3056 26.2167 90.1235L24.7761 90.3385C25.0522 90.4647 25.3301 90.5865 25.6099 90.7027C24.7265 91.6403 24.0893 92.7992 24.0713 94.1104C24.0546 95.7527 24.8834 97.2988 25.9648 98.4962C26.9047 99.5358 28.0636 100.365 29.3181 100.987C29.9552 101.303 30.6203 101.57 31.3052 101.785C31.7439 101.92 31.9895 102.388 31.8518 102.826C31.719 103.249 31.2786 103.489 30.8554 103.381C30.0799 103.181 29.3162 102.922 28.5742 102.601C27.4618 102.122 26.4109 101.499 25.4616 100.741C25.4585 100.849 25.4567 100.957 25.4567 101.065C25.4523 102.757 25.801 104.457 26.3674 106.055C27.2794 108.667 29.1009 110.846 31.183 112.646C34.862 115.994 39.5231 118.199 44.3865 119.173C46.8538 119.63 49.3727 120.026 51.871 120.011C61.1982 120.057 67.7273 113.858 69.8907 105.024C70.2369 103.638 70.4856 102.204 70.583 100.784C70.6699 99.8788 71.9845 99.9229 71.9827 100.864Z" fill="#010101"/>
<path d="M26.2164 90.1241C26.0049 90.3061 25.8014 90.4994 25.6097 90.7032C25.3298 90.587 25.0519 90.4652 24.7759 90.339L26.2164 90.124V90.1241Z" fill="#010101"/>
<path d="M122.21 66.6748C121.489 66.2014 120.7 65.9652 119.915 65.7458C119.162 65.5389 118.389 65.345 117.606 65.2798C116.836 65.2009 116.022 65.2444 115.272 65.2879C115.147 65.2947 115.021 65.301 114.895 65.3053C115.787 61.3402 117.194 51.5917 112.441 42.3125C115.245 41.0386 117.955 39.6076 120.529 37.8888C121.391 37.2972 122.293 36.5969 122.863 35.681C124.186 33.5298 124.565 30.657 123.421 28.3461C122.076 25.5641 118.572 24.6879 115.823 24.1044C113.089 23.5663 110.284 23.434 107.509 23.6607C107.286 18.8791 105.333 14.1702 101.873 10.8371C101.55 10.5052 101.099 10.1219 100.749 9.81731C100.604 9.698 100.178 9.37301 100.032 9.25557C99.9025 9.15179 99.6711 9.00148 99.5383 8.90386C99.2616 8.69693 98.8174 8.42731 98.5252 8.24027C98.0114 7.9333 97.4705 7.63814 96.932 7.37709C94.7599 6.33253 92.3893 5.6869 89.9866 5.50918C86.0061 5.19793 82.0913 6.31519 78.4947 7.91833C69.9214 11.5026 62.7465 17.8911 57.4382 25.4503C56.8761 26.2476 56.332 27.0573 55.8066 27.8794C52.8745 27.2828 49.9283 27.9179 47.6774 29.6416C45.7517 31.1174 44.5208 33.2905 44.1175 35.927C43.8341 37.7757 44.0183 39.377 44.1536 40.1674C44.5556 42.5088 45.6438 44.6122 47.3889 46.4186C48.0521 47.1047 48.7135 47.6415 49.2619 48.0343C47.8381 51.409 46.9732 55.0187 46.7716 58.6787C46.6414 61.6223 46.7103 64.5963 47.3101 67.4938C47.9858 70.9736 49.4357 74.1173 51.501 76.7576C49.028 77.5964 45.5879 78.2936 41.6105 77.799C39.3379 77.5163 35.5349 77.0434 32.3937 74.4168C30.4557 72.7968 29.5648 71.0339 28.7781 69.4786C27.8977 67.7368 27.0657 66.092 25.0326 65.8167C22.1044 65.4202 19.781 68.429 18.0848 70.6257C15.8731 73.4897 14.1216 76.775 12.879 80.3908C12.0376 82.836 11.6357 84.8388 11.4458 86.0884C10.6586 91.277 9.75766 104.623 18.382 116.455C26.4026 127.458 37.7708 130.445 47.8009 133.081L47.8195 133.086C53.5192 134.583 59.3677 135.336 65.2708 135.336C67.1395 135.336 69.0138 135.261 70.8898 135.11C77.6287 134.567 83.0486 133.135 85.6536 132.446C92.5488 130.624 98.1219 128.108 101.771 125.171C103.285 123.953 105.558 121.993 107.82 119.05C110.85 115.107 112.783 110.77 113.566 106.157C113.913 104.117 114.331 99.948 113.236 94.9526C112.297 90.6699 110.406 86.5899 107.734 83.0486C111.542 81.7616 114.345 79.1437 115.936 75.4272C116.164 75.4825 116.395 75.5278 116.631 75.557C117.234 75.6428 117.842 75.6366 118.437 75.603C119.057 75.5707 119.659 75.5061 120.279 75.3079C122.391 74.6392 123.782 72.4774 123.923 70.3199C124.026 68.8957 123.44 67.4553 122.21 66.6748ZM46.722 39.7262C46.6345 39.2161 46.4571 37.8627 46.6929 36.3222C46.9969 34.3376 47.8605 32.7878 49.2607 31.7147C50.6697 30.6359 52.4688 30.1425 54.3307 30.2991C54.1396 30.6285 53.951 30.959 53.7655 31.2915C53.5805 31.6233 53.6941 32.0446 54.0235 32.2366C54.3561 32.4311 54.783 32.318 54.9771 31.9843C55.7316 30.6863 56.5263 29.4124 57.3688 28.1721C61.5466 22.0079 66.8727 16.5128 73.2828 12.6937C75.1992 11.5442 77.2024 10.5829 79.266 9.72596C81.2854 8.87782 83.3966 8.15508 85.5438 7.81959C89.4251 7.16775 93.4819 7.93144 96.8681 9.92357C101.936 12.8665 104.83 18.2055 104.931 23.974C104.814 23.9932 104.696 24.0124 104.579 24.033C103.802 24.1753 103.024 24.3157 102.246 24.4562C102.376 23.823 102.441 23.1761 102.441 22.5187C102.441 17.1989 98.1201 12.8709 92.8088 12.8709C87.4975 12.8709 83.1763 17.1989 83.1763 22.5187C83.1763 24.6948 83.906 26.7808 85.2219 28.4635C83.4177 29.1011 81.6421 29.825 79.9081 30.6154C75.5118 32.6151 71.3049 35.031 67.3499 37.8031L67.2524 37.8335L66.5595 38.0504L65.4514 38.3971C65.3764 38.4201 65.127 38.5003 65.0593 38.5202C59.9912 39.7406 55.1589 41.9329 50.9067 44.9535C50.7447 45.0622 50.6126 45.2088 50.5164 45.3922C50.4755 45.4692 50.4352 45.5463 50.3948 45.6239C49.079 44.5899 47.2246 42.658 46.722 39.7263V39.7262ZM100.703 22.5187C100.703 23.2991 100.592 24.0615 100.372 24.7954C96.6007 25.4826 92.8367 26.2115 89.1298 27.2331C88.4145 27.4301 87.7016 27.642 86.9931 27.8676C85.6617 26.416 84.9135 24.5139 84.9135 22.5187C84.9135 18.1583 88.4554 14.6108 92.8088 14.6108C97.1622 14.6108 100.703 18.1583 100.703 22.5187ZM110.691 95.5118C111.691 100.076 111.312 103.866 110.998 105.719C110.286 109.907 108.522 113.857 105.755 117.458C103.663 120.18 101.548 122.002 100.139 123.137C96.7725 125.846 91.5332 128.193 84.9885 129.923C82.2625 130.643 77.1889 131.985 70.6814 132.508C63.1696 133.113 55.6998 132.459 48.4809 130.562L48.4622 130.557C43.5102 129.255 38.39 127.909 33.5341 125.584C28.0839 122.973 23.8161 119.483 20.4864 114.915C12.4335 103.868 13.2829 91.3497 14.0217 86.4805C14.3021 84.6331 15.5722 78.1458 20.1457 72.2226C21.3804 70.6238 23.2472 68.2078 24.684 68.4029C25.3013 68.4868 25.6599 69.0877 26.4534 70.6573C27.2637 72.2605 28.3736 74.4559 30.7236 76.4208C34.4535 79.5389 38.7325 80.0708 41.2892 80.389C46.3268 81.0147 50.5859 79.936 53.3765 78.8517C55.6565 81.0825 58.4532 82.8155 61.6316 83.9061C62.5107 84.1739 62.95 82.9429 62.1081 82.5906C59.8287 81.7275 57.7094 80.4921 55.8556 78.92C49.896 73.7904 48.4033 66.7152 48.9828 59.1609C49.2762 54.8721 50.5791 50.6721 52.6512 46.9157C52.5712 46.9711 52.4924 47.027 52.413 47.0829L52.8026 46.6442C52.7517 46.7343 52.7009 46.825 52.6512 46.9157C56.4767 44.2431 60.7916 42.277 65.3168 41.1455L65.609 41.0734C65.6562 41.061 65.7083 41.0504 65.7523 41.0361L65.8876 40.9939L66.1581 40.9094L67.1898 40.5862C67.554 40.7795 67.9299 40.9547 68.3152 41.1094C69.3587 41.5252 70.4817 41.7843 71.6083 41.8365C72.4161 41.8762 73.2375 41.811 74.0242 41.6488C75.2873 41.3984 76.4506 40.8826 77.4687 40.4054C78.4669 39.9456 79.4887 39.523 80.5335 39.1142C82.3736 38.3927 84.2739 37.6986 86.0935 36.8865C89.4059 35.3411 92.7263 33.8261 96.1776 32.6256C97.3681 32.203 98.586 31.819 99.81 31.4592C99.7468 31.243 99.7679 31.0025 99.887 30.7912C99.8888 30.7875 99.8907 30.7844 99.8926 30.7806C100.133 30.3649 100.664 30.2233 101.079 30.4644C101.32 30.6042 101.559 30.7471 101.795 30.8931C102.065 30.8173 102.336 30.7434 102.606 30.6694C104.743 30.0909 106.898 29.6068 109.101 29.5062C112.385 29.3533 115.689 30.0232 118.721 31.2846C119.548 31.5878 120.009 30.4445 119.244 30.0723C116.049 28.653 112.552 27.8651 109.047 27.9446C105.571 28.0241 102.202 28.9798 98.8695 29.8554C94.3219 31.0777 89.9115 32.848 85.6233 34.7545C83.6876 35.5884 81.7166 36.2464 79.7257 36.9747C78.4005 37.4494 77.0474 38.0025 75.7421 38.5692C74.5825 39.057 73.3678 39.395 72.1171 39.359C71.635 39.3472 71.1505 39.2894 70.6802 39.1819C70.5034 39.1427 70.3272 39.0968 70.1529 39.0452C74.8989 35.8643 79.9981 33.1867 85.3472 31.1901C91.6815 28.85 98.3974 27.8303 105.017 26.6055C108.419 26.0177 111.932 25.9978 115.32 26.6652C116.75 26.9541 118.258 27.3375 119.515 28.0074C119.809 28.1683 120.086 28.3404 120.312 28.5312C120.72 28.8624 120.985 29.239 121.182 29.7075C121.768 31.1479 121.483 32.8586 120.722 34.1865C120.365 34.8017 119.794 35.2155 119.054 35.7381C117.774 36.6404 116.727 37.273 115.039 38.1261C113.952 38.6754 112.639 39.3229 111.135 40.032C110.761 39.4435 110.363 38.865 109.947 38.307C107.756 35.3684 105.016 32.8772 101.795 30.8931C101.411 30.9988 101.028 31.1069 100.644 31.2169H100.643C100.365 31.2964 100.087 31.3772 99.81 31.4592C99.8696 31.6668 100.007 31.8525 100.208 31.9694C103.537 33.9013 106.345 36.3838 108.555 39.3484C109.03 39.986 109.481 40.6521 109.897 41.3294L110.869 43.0557C112.912 47.022 113.984 51.5371 114.057 56.4753C114.114 60.3596 113.519 63.5517 113.158 65.1089C113.149 65.1474 113.14 65.186 113.131 65.2239C112.857 65.1829 112.587 65.1244 112.325 65.0449C111.709 64.8523 111.168 64.4552 110.577 64.1122C110.253 63.9177 109.919 63.7269 109.583 63.5461C108.614 63.026 107.635 62.5829 106.638 62.1517C108.352 61.0264 109.57 58.1617 109.57 54.8062C109.57 50.467 107.534 46.9499 105.023 46.9499C102.511 46.9499 100.476 50.467 100.476 54.8062C100.476 57.0047 100.999 58.9925 101.842 60.4186C101.591 60.3627 101.338 60.313 101.081 60.272C98.9154 59.9159 96.8358 60.3745 95.157 61.8416C93.7822 63.0061 92.3385 64.1296 90.8513 65.1431C89.9624 65.7508 89.0522 66.361 88.1353 66.924C87.2723 67.4553 86.4024 67.9089 85.4204 68.1469C84.7714 68.3134 84.169 68.3911 83.4947 68.3917L82.9456 68.393C82.306 68.3874 81.6017 68.4738 80.9901 68.6844C80.5694 68.8242 80.1823 68.9964 79.8119 69.1927C77.7311 70.3094 75.6397 72.4177 75.9461 74.994C76.355 77.8009 79.3051 79.3227 81.595 80.4132C82.7098 80.9259 83.9351 81.098 85.099 81.4112C87.232 81.9375 89.3128 82.567 91.4129 83.2213C93.6333 83.8278 95.9058 84.1528 98.2031 84.2833C100.475 84.3889 102.769 84.2889 105.002 83.7905C107.039 86.2929 109.534 90.2375 110.691 95.5118ZM105.492 52.4096C105.492 53.6939 104.889 54.7347 104.146 54.7347C103.403 54.7347 102.8 53.6939 102.8 52.4096C102.8 51.1251 103.403 50.0836 104.146 50.0836C104.889 50.0836 105.492 51.1251 105.492 52.4096ZM120.522 73.3113C119.893 73.7569 119.117 73.8793 118.343 73.9209C117.503 73.9861 116.709 73.9445 115.898 73.6984C115.573 73.6059 115.23 73.4879 114.861 73.3741C114.099 73.1367 113.276 72.9702 112.463 72.964C111.264 72.9528 110.077 73.3902 109 73.7264L106.907 74.4037C104.636 75.1252 102.334 75.7285 100.051 76.463C99.9273 76.5022 99.6791 76.5755 99.5538 76.6097C94.4392 77.9183 88.6924 76.4065 83.7912 74.771C82.9146 74.5087 82.5032 75.7379 83.3408 76.0666C88.2711 77.7574 93.5595 79.1804 98.808 78.3222C99.2796 78.239 99.7604 78.1277 100.224 77.9979C101.887 77.4833 103.558 77.0198 105.25 76.5426C106.497 76.2033 108.226 75.6428 109.485 75.2538C110.655 74.9077 111.727 74.4764 112.917 74.6268C113.082 74.643 113.245 74.6678 113.406 74.6989C112.914 75.7807 112.325 76.7737 111.536 77.6549C110.212 79.1387 108.472 80.1895 106.574 80.7885C106.019 80.9706 105.374 81.1334 104.8 81.2794C103.032 81.725 101.203 81.8952 99.3702 81.8747C97.2558 81.8735 95.1285 81.6144 93.0582 81.1819C92.006 80.9644 91.0022 80.6077 89.9617 80.3101C88.1731 79.7912 86.3795 79.3214 84.5642 78.907C83.8495 78.7386 83.1851 78.6255 82.5299 78.3284C82.2942 78.2241 81.9443 78.0488 81.7004 77.9332C80.3449 77.2485 78.0698 76.0436 78.1325 74.359C78.2007 73.2846 79.1276 72.2723 80.0272 71.6186C80.7624 71.0942 81.5918 70.6406 82.4958 70.561C83.1671 70.515 84.0201 70.5616 84.746 70.4461C85.962 70.2771 87.1526 69.8856 88.2234 69.2965C88.9077 68.9268 89.543 68.5166 90.1814 68.096C92.0481 66.8594 93.8858 65.5557 95.5974 64.1072C96.185 63.6263 96.9239 62.9166 97.5921 62.6078C99.8584 61.5229 102.496 62.5463 104.763 63.4467C106.406 64.1327 108.086 64.82 109.62 65.7316C110.827 66.4617 111.545 66.9085 113.008 67.0756C114.142 67.2378 115.327 67.1079 116.445 67.0613C117.206 67.0365 117.937 67.1135 118.677 67.2844C119.743 67.5671 121.178 67.8145 121.794 68.6807C122.74 70.0981 121.851 72.3948 120.522 73.3113Z" fill="#010101"/>
</svg>
